<?xml version="1.0" standalone="no"?>
<!DOCTYPE svg PUBLIC "-//W3C//DTD SVG 20010904//EN"
 "http://www.w3.org/TR/2001/REC-SVG-20010904/DTD/svg10.dtd">
<svg version="1.0" xmlns="http://www.w3.org/2000/svg"
 width="128.000000pt" height="128.000000pt" viewBox="0 0 128.000000 128.000000"
 preserveAspectRatio="xMidYMid meet">
<metadata>
Created by potrace 1.10, written by Peter Selinger 2001-2011
</metadata>
<g transform="translate(0.000000,128.000000) scale(0.100000,-0.100000)"
fill="#000000" stroke="none">
<path d="M350 1243 c-41 -20 -76 -40 -78 -45 -2 -4 -8 -8 -13 -8 -16 0 -48
-33 -42 -44 3 -6 3 -8 -2 -4 -11 10 -47 -11 -40 -23 4 -5 2 -9 -4 -9 -6 0 -20
-10 -32 -22 -12 -13 -18 -17 -14 -9 5 10 4 12 -4 7 -6 -4 -9 -11 -6 -16 3 -4
-11 -31 -30 -60 -19 -29 -32 -56 -29 -61 3 -5 -2 -9 -10 -9 -9 0 -16 -8 -16
-18 0 -10 -5 -23 -11 -29 -6 -6 -13 -42 -15 -80 l-5 -68 24 75 c68 218 243
388 457 444 l55 15 -55 0 c-44 1 -70 -7 -130 -36z"/>
<path d="M835 1253 c106 -37 183 -84 258 -160 76 -76 124 -153 160 -258 l27
-80 -2 50 c-2 52 -58 181 -85 198 -7 5 -11 12 -8 18 4 5 1 9 -5 9 -6 0 -8 5
-5 10 4 6 1 9 -7 8 -7 -2 -12 3 -10 10 1 8 -2 11 -8 7 -5 -3 -10 1 -10 9 0 9
-5 16 -11 16 -6 0 -9 9 -6 20 3 11 2 18 -3 15 -11 -7 -60 19 -60 32 0 7 -10
18 -22 24 -13 7 -25 15 -28 18 -8 10 -64 35 -74 32 -5 -1 -6 5 -3 12 4 11 0
13 -15 9 -16 -4 -20 -1 -16 9 4 11 -10 15 -71 17 l-76 2 80 -27z"/>
<path d="M281 1147 c2 -1 13 -9 24 -17 19 -14 19 -14 6 3 -7 9 -18 17 -24 17
-6 0 -8 -1 -6 -3z"/>
<path d="M955 1130 c-3 -5 -1 -10 4 -10 6 0 11 5 11 10 0 6 -2 10 -4 10 -3 0
-8 -4 -11 -10z"/>
<path d="M510 1025 c-7 -9 -8 -15 -2 -15 5 0 12 7 16 15 3 8 4 15 2 15 -2 0
-9 -7 -16 -15z"/>
<path d="M741 1037 c2 -2 11 -8 20 -15 12 -9 16 -9 16 1 0 7 -9 14 -20 14 -11
1 -18 1 -16 0z"/>
<path d="M145 991 c-3 -5 -2 -12 3 -15 5 -3 9 1 9 9 0 17 -3 19 -12 6z"/>
<path d="M533 986 c-100 -32 -171 -95 -224 -196 -20 -39 -24 -59 -24 -150 0
-101 1 -108 34 -168 41 -75 94 -125 170 -161 48 -22 69 -26 151 -26 82 0 103
4 151 26 76 36 129 86 170 161 33 60 34 68 34 168 0 100 -1 108 -34 168 -65
120 -168 184 -306 189 -49 2 -96 -3 -122 -11z m167 -20 c0 -4 11 -6 25 -4 13
3 22 2 20 -2 -3 -4 12 -11 32 -15 20 -3 43 -14 52 -24 9 -9 14 -12 11 -6 -3 6
2 3 12 -7 9 -10 21 -18 26 -18 5 0 13 -11 16 -25 4 -17 11 -23 19 -18 7 4 6 0
-2 -11 -8 -9 -10 -16 -5 -15 18 3 34 -1 33 -8 -3 -16 23 -73 31 -68 4 3 6 -41
5 -98 -3 -113 -5 -138 -14 -132 -4 2 -11 -8 -18 -21 -8 -18 -8 -22 0 -18 7 4
2 -3 -10 -15 -13 -12 -23 -26 -23 -32 0 -6 -5 -7 -12 -3 -6 4 -8 3 -4 -4 6
-10 -30 -52 -45 -52 -5 0 -18 -10 -30 -23 -12 -12 -18 -15 -14 -7 6 12 5 13
-6 3 -7 -7 -21 -13 -30 -13 -9 0 -22 -7 -29 -15 -10 -12 -31 -15 -101 -12 -48
2 -94 8 -101 14 -7 6 -28 14 -45 18 -18 3 -33 11 -33 16 0 6 -4 7 -10 4 -5 -3
-10 2 -10 11 0 10 -3 15 -6 11 -9 -9 -54 44 -47 56 4 6 0 8 -10 4 -10 -4 -16
-2 -14 6 1 7 -4 11 -11 9 -8 -1 -12 3 -10 10 3 7 -5 32 -17 55 -17 31 -20 44
-11 54 6 7 6 9 1 6 -16 -8 -11 130 5 176 8 20 17 37 21 37 4 0 6 8 5 18 0 9 5
16 12 14 8 -1 11 1 8 6 -9 14 51 75 65 66 7 -4 10 -3 6 3 -4 6 2 18 13 28 11
10 20 15 20 12 0 -4 22 2 49 12 28 10 52 16 55 13 4 -3 6 -1 6 5 0 7 24 10 60
9 33 0 60 -5 60 -10z"/>
<path d="M623 953 c9 -2 25 -2 35 0 9 3 1 5 -18 5 -19 0 -27 -2 -17 -5z"/>
<path d="M1137 989 c7 -7 15 -10 18 -7 3 3 -2 9 -12 12 -14 6 -15 5 -6 -5z"/>
<path d="M933 948 c-13 -21 -12 -37 2 -32 17 7 27 32 15 39 -5 3 -12 0 -17 -7z"/>
<path d="M61 804 c0 -11 3 -14 6 -6 3 7 2 16 -1 19 -3 4 -6 -2 -5 -13z"/>
<path d="M55 757 c-14 -11 -15 -16 -5 -22 9 -6 11 -4 5 5 -6 9 -4 12 7 8 9 -4
15 0 15 8 0 17 1 17 -22 1z"/>
<path d="M1257 749 c7 -7 15 -10 18 -7 3 3 -2 9 -12 12 -14 6 -15 5 -6 -5z"/>
<path d="M4 461 c3 -48 11 -80 21 -91 9 -10 17 -27 18 -38 0 -11 4 -19 8 -16
4 2 10 -5 14 -16 3 -11 11 -20 16 -20 6 0 7 -4 4 -10 -3 -5 -1 -10 4 -10 6 0
11 -6 11 -14 0 -7 8 -20 17 -27 15 -12 16 -12 8 1 -6 11 -5 12 4 4 7 -6 13
-20 14 -32 0 -12 3 -19 5 -17 2 2 20 -11 39 -28 20 -18 39 -31 43 -30 4 1 21
-11 38 -27 17 -16 41 -31 52 -35 11 -3 20 -10 20 -15 0 -5 7 -7 15 -4 8 4 15
1 15 -7 0 -7 3 -9 7 -6 3 4 16 1 27 -6 12 -8 44 -14 71 -15 l50 -2 -70 23
c-134 45 -228 109 -317 215 -46 55 -102 165 -123 242 l-15 55 4 -74z m217
-328 c13 -16 12 -17 -3 -4 -10 7 -18 15 -18 17 0 8 8 3 21 -13z"/>
<path d="M1262 478 c-23 -100 -127 -278 -153 -262 -5 3 -6 10 -3 16 5 7 2 8
-5 3 -9 -5 -10 -10 -2 -18 18 -18 14 -23 -51 -75 -75 -59 -129 -87 -223 -118
-54 -18 -63 -23 -39 -24 17 0 51 7 75 16 24 9 50 17 57 18 7 1 18 8 24 14 7 7
19 12 26 12 8 0 40 20 70 45 30 25 59 45 65 45 6 0 8 3 5 6 -3 3 12 24 33 47
21 23 39 45 39 49 0 4 6 13 14 21 13 13 39 67 45 92 1 6 10 18 19 28 14 15 32
137 21 137 -3 0 -10 -24 -17 -52z"/>
<path d="M65 451 c-3 -5 -2 -12 3 -15 5 -3 9 1 9 9 0 17 -3 19 -12 6z"/>
<path d="M965 420 c-3 -5 -1 -10 4 -10 6 0 11 5 11 10 0 6 -2 10 -4 10 -3 0
-8 -4 -11 -10z"/>
<path d="M131 364 c0 -11 3 -14 6 -6 3 7 2 16 -1 19 -3 4 -6 -2 -5 -13z"/>
<path d="M340 360 c-11 -7 -11 -10 -2 -10 7 0 10 -5 7 -10 -4 -6 -11 -7 -17
-4 -7 5 -8 2 -3 -5 9 -15 27 0 31 24 3 18 3 17 -16 5z"/>
<path d="M133 295 c0 -8 4 -12 9 -9 5 3 6 10 3 15 -9 13 -12 11 -12 -6z"/>
<path d="M1127 296 c-4 -10 -1 -13 8 -9 8 3 12 9 9 14 -7 12 -11 11 -17 -5z"/>
<path d="M515 250 c-3 -5 -1 -10 4 -10 6 0 11 5 11 10 0 6 -2 10 -4 10 -3 0
-8 -4 -11 -10z"/>
<path d="M754 252 c4 -3 14 -7 22 -8 9 -1 13 0 10 4 -4 3 -14 7 -22 8 -9 1
-13 0 -10 -4z"/>
<path d="M320 120 c0 -5 5 -10 11 -10 5 0 7 5 4 10 -3 6 -8 10 -11 10 -2 0 -4
-4 -4 -10z"/>
<path d="M465 71 c-3 -5 -2 -12 3 -15 5 -3 9 1 9 9 0 17 -3 19 -12 6z"/>
</g>
</svg>
